<svg width="20" height="15" viewBox="0 0 20 15" fill="none" xmlns="http://www.w3.org/2000/svg">
<path d="M0 0.9375C0 0.419738 0.419738 0 0.9375 0H19.0625C19.5803 0 20 0.419738 20 0.9375C20 1.45526 19.5803 1.875 19.0625 1.875H0.9375C0.419738 1.875 0 1.45526 0 0.9375Z" fill="white"/>
<path d="M0 7.1875C0 6.66974 0.419738 6.25 0.9375 6.25H19.0625C19.5803 6.25 20 6.66974 20 7.1875C20 7.70525 19.5803 8.125 19.0625 8.125H0.9375C0.419738 8.125 0 7.70525 0 7.1875Z" fill="white"/>
<path d="M0.9375 12.5C0.419738 12.5 0 12.9197 0 13.4375C0 13.9553 0.419738 14.375 0.9375 14.375H19.0625C19.5803 14.375 20 13.9553 20 13.4375C20 12.9197 19.5803 12.5 19.0625 12.5H0.9375Z" fill="white"/>
</svg>
