<svg width="30" height="21" viewBox="0 0 30 21" fill="none" xmlns="http://www.w3.org/2000/svg">
<path d="M18.1625 8.28623L11.8375 12.7137C10.9988 12.1266 10.5276 11.3303 10.5276 10.5C10.5276 10.0888 10.6432 9.68174 10.868 9.3019C11.0928 8.92207 11.4222 8.57694 11.8375 8.28623C12.2528 7.99551 12.7459 7.76491 13.2885 7.60757C13.8311 7.45024 14.4127 7.36926 15 7.36926C16.1862 7.36926 17.3238 7.6991 18.1625 8.28623V8.28623Z" stroke="white" stroke-width="1.5" stroke-linecap="round" stroke-linejoin="round"/>
<path d="M22.275 5.04873C20.0875 3.89373 17.5875 3.26373 15 3.26373C10.5875 3.26373 6.475 5.08373 3.6125 8.23373C2.4875 9.46748 2.4875 11.5412 3.6125 12.775C4.6 13.86 5.75 14.7962 7 15.5487M10.525 17.0887C11.95 17.5087 13.4625 17.7362 15 17.7362C19.4125 17.7362 23.525 15.9162 26.3875 12.7662C27.5125 11.5325 27.5125 9.45873 26.3875 8.22498C25.975 7.76998 25.525 7.34123 25.0625 6.93873" stroke="white" stroke-width="1.5" stroke-linecap="round" stroke-linejoin="round"/>
<path d="M19.3875 11.1125C19.2182 11.7229 18.7921 12.2839 18.164 12.7236C17.5359 13.1632 16.7345 13.4615 15.8625 13.58M11.8375 12.7137L2.5 19.25M27.5 1.75L18.1625 8.28625" stroke="white" stroke-width="1.5" stroke-linecap="round" stroke-linejoin="round"/>
</svg>
