<svg width="310" height="672" viewBox="0 0 310 672" fill="none" xmlns="http://www.w3.org/2000/svg">
<path d="M251 6.66666C243.974 6.66631 237.231 9.43919 232.237 14.3826C227.244 19.3261 224.404 26.0405 224.333 33.0667C224.333 51.3333 247.833 71.6667 248.833 72.5333C249.437 73.0497 250.205 73.3335 251 73.3335C251.794 73.3335 252.563 73.0497 253.167 72.5333C254.333 71.6667 277.667 51.3333 277.667 33.0667C277.596 26.0405 274.756 19.3261 269.763 14.3826C264.769 9.43919 258.026 6.66631 251 6.66666V6.66666ZM251 65.5C245.433 60.2 231 45.5 231 33.0667C231 27.7623 233.107 22.6752 236.858 18.9245C240.609 15.1738 245.696 13.0667 251 13.0667C256.304 13.0667 261.391 15.1738 265.142 18.9245C268.893 22.6752 271 27.7623 271 33.0667C271 45.4 256.567 60.2 251 65.5Z" fill="#F71212"/>
<path d="M251 20C248.693 20 246.437 20.6842 244.518 21.9662C242.6 23.2481 241.104 25.0702 240.221 27.202C239.338 29.3338 239.107 31.6796 239.557 33.9427C240.008 36.2058 241.119 38.2846 242.75 39.9162C244.382 41.5478 246.461 42.659 248.724 43.1091C250.987 43.5593 253.333 43.3283 255.465 42.4452C257.596 41.5622 259.419 40.0669 260.7 38.1483C261.982 36.2297 262.667 33.9741 262.667 31.6666C262.667 28.5724 261.437 25.605 259.25 23.4171C257.062 21.2291 254.094 20 251 20V20ZM251 36.6666C250.011 36.6666 249.044 36.3734 248.222 35.824C247.4 35.2746 246.759 34.4937 246.381 33.5801C246.002 32.6664 245.903 31.6611 246.096 30.6912C246.289 29.7213 246.765 28.8304 247.464 28.1311C248.164 27.4318 249.055 26.9556 250.025 26.7627C250.994 26.5698 252 26.6688 252.913 27.0472C253.827 27.4257 254.608 28.0665 255.157 28.8888C255.707 29.711 256 30.6777 256 31.6666C256 32.9927 255.473 34.2645 254.536 35.2022C253.598 36.1399 252.326 36.6666 251 36.6666Z" fill="#F71212"/>
<path d="M270 560.667C262.974 560.666 256.231 563.439 251.238 568.383C246.244 573.326 243.404 580.041 243.333 587.067C243.333 605.333 266.833 625.667 267.833 626.533C268.437 627.05 269.206 627.334 270 627.334C270.795 627.334 271.563 627.05 272.167 626.533C273.333 625.667 296.667 605.333 296.667 587.067C296.596 580.041 293.756 573.326 288.763 568.383C283.769 563.439 277.027 560.666 270 560.667ZM270 619.5C264.433 614.2 250 599.5 250 587.067C250 581.762 252.107 576.675 255.858 572.925C259.609 569.174 264.696 567.067 270 567.067C275.304 567.067 280.391 569.174 284.142 572.925C287.893 576.675 290 581.762 290 587.067C290 599.4 275.567 614.2 270 619.5Z" fill="#F61212"/>
<path d="M270 574C267.693 574 265.437 574.684 263.518 575.966C261.6 577.248 260.104 579.07 259.221 581.202C258.338 583.334 258.107 585.68 258.558 587.943C259.008 590.206 260.119 592.285 261.75 593.916C263.382 595.548 265.461 596.659 267.724 597.109C269.987 597.559 272.333 597.328 274.465 596.445C276.596 595.562 278.419 594.067 279.701 592.148C280.982 590.23 281.667 587.974 281.667 585.667C281.667 582.572 280.438 579.605 278.25 577.417C276.062 575.229 273.094 574 270 574ZM270 590.667C269.011 590.667 268.044 590.373 267.222 589.824C266.4 589.275 265.759 588.494 265.381 587.58C265.002 586.666 264.903 585.661 265.096 584.691C265.289 583.721 265.765 582.83 266.465 582.131C267.164 581.432 268.055 580.956 269.025 580.763C269.994 580.57 271 580.669 271.913 581.047C272.827 581.426 273.608 582.067 274.157 582.889C274.707 583.711 275 584.678 275 585.667C275 586.993 274.473 588.265 273.536 589.202C272.598 590.14 271.326 590.667 270 590.667Z" fill="#F61212"/>
<path d="M40 488.667C32.9735 488.666 26.2308 491.439 21.2375 496.383C16.2441 501.326 13.4036 508.041 13.3333 515.067C13.3333 533.333 36.8333 553.667 37.8333 554.533C38.4371 555.05 39.2055 555.334 40 555.334C40.7945 555.334 41.5629 555.05 42.1666 554.533C43.3333 553.667 66.6666 533.333 66.6666 515.067C66.5964 508.041 63.7559 501.326 58.7625 496.383C53.7691 491.439 47.0265 488.666 40 488.667V488.667ZM40 547.5C34.4333 542.2 20 527.5 20 515.067C20 509.762 22.1071 504.675 25.8578 500.925C29.6086 497.174 34.6956 495.067 40 495.067C45.3043 495.067 50.3914 497.174 54.1421 500.925C57.8928 504.675 60 509.762 60 515.067C60 527.4 45.5666 542.2 40 547.5Z" fill="#F61212"/>
<path d="M40 502C37.6925 502 35.4369 502.684 33.5183 503.966C31.5998 505.248 30.1044 507.07 29.2214 509.202C28.3384 511.334 28.1073 513.68 28.5575 515.943C29.0077 518.206 30.1188 520.285 31.7504 521.916C33.382 523.548 35.4608 524.659 37.7239 525.109C39.987 525.559 42.3328 525.328 44.4646 524.445C46.5964 523.562 48.4185 522.067 49.7005 520.148C50.9824 518.23 51.6667 515.974 51.6667 513.667C51.6667 510.572 50.4375 507.605 48.2496 505.417C46.0616 503.229 43.0942 502 40 502V502ZM40 518.667C39.0111 518.667 38.0444 518.373 37.2221 517.824C36.3999 517.275 35.759 516.494 35.3806 515.58C35.0021 514.666 34.9031 513.661 35.0961 512.691C35.289 511.721 35.7652 510.83 36.4645 510.131C37.1637 509.432 38.0546 508.956 39.0245 508.763C39.9944 508.57 40.9998 508.669 41.9134 509.047C42.827 509.426 43.6079 510.067 44.1573 510.889C44.7067 511.711 45 512.678 45 513.667C45 514.993 44.4732 516.265 43.5355 517.202C42.5978 518.14 41.3261 518.667 40 518.667Z" fill="#F61212"/>
<path d="M40 62.6667C32.9735 62.6663 26.2308 65.4392 21.2375 70.3827C16.2441 75.3261 13.4036 82.0406 13.3333 89.0667C13.3333 107.333 36.8333 127.667 37.8333 128.533C38.4371 129.05 39.2055 129.334 40 129.334C40.7945 129.334 41.5629 129.05 42.1666 128.533C43.3333 127.667 66.6666 107.333 66.6666 89.0667C66.5964 82.0406 63.7559 75.3261 58.7625 70.3827C53.7691 65.4392 47.0265 62.6663 40 62.6667V62.6667ZM40 121.5C34.4333 116.2 20 101.5 20 89.0667C20 83.7624 22.1071 78.6753 25.8578 74.9245C29.6086 71.1738 34.6956 69.0667 40 69.0667C45.3043 69.0667 50.3914 71.1738 54.1421 74.9245C57.8928 78.6753 60 83.7624 60 89.0667C60 101.4 45.5666 116.2 40 121.5Z" fill="#64E444"/>
<path d="M40 76C37.6925 76 35.4369 76.6842 33.5183 77.9662C31.5998 79.2481 30.1044 81.0702 29.2214 83.202C28.3384 85.3338 28.1073 87.6796 28.5575 89.9427C29.0077 92.2058 30.1188 94.2846 31.7504 95.9162C33.382 97.5479 35.4608 98.659 37.7239 99.1092C39.987 99.5593 42.3328 99.3283 44.4646 98.4453C46.5964 97.5622 48.4185 96.0669 49.7005 94.1483C50.9824 92.2297 51.6667 89.9741 51.6667 87.6667C51.6667 84.5725 50.4375 81.605 48.2496 79.4171C46.0616 77.2292 43.0942 76 40 76V76ZM40 92.6667C39.0111 92.6667 38.0444 92.3734 37.2221 91.824C36.3999 91.2746 35.759 90.4937 35.3806 89.5801C35.0021 88.6665 34.9031 87.6611 35.0961 86.6912C35.289 85.7213 35.7652 84.8304 36.4645 84.1311C37.1637 83.4319 38.0546 82.9557 39.0245 82.7627C39.9944 82.5698 40.9998 82.6688 41.9134 83.0473C42.827 83.4257 43.6079 84.0666 44.1573 84.8888C44.7067 85.7111 45 86.6778 45 87.6667C45 88.9927 44.4732 90.2645 43.5355 91.2022C42.5978 92.1399 41.3261 92.6667 40 92.6667Z" fill="#64E444"/>
<path d="M251 262.667C243.974 262.666 237.231 265.439 232.237 270.383C227.244 275.326 224.404 282.041 224.333 289.067C224.333 307.333 247.833 327.667 248.833 328.533C249.437 329.05 250.205 329.334 251 329.334C251.794 329.334 252.563 329.05 253.167 328.533C254.333 327.667 277.667 307.333 277.667 289.067C277.596 282.041 274.756 275.326 269.763 270.383C264.769 265.439 258.026 262.666 251 262.667V262.667ZM251 321.5C245.433 316.2 231 301.5 231 289.067C231 283.762 233.107 278.675 236.858 274.925C240.609 271.174 245.696 269.067 251 269.067C256.304 269.067 261.391 271.174 265.142 274.925C268.893 278.675 271 283.762 271 289.067C271 301.4 256.567 316.2 251 321.5Z" fill="#64E444"/>
<path d="M251 276C248.693 276 246.437 276.684 244.518 277.966C242.6 279.248 241.104 281.07 240.221 283.202C239.338 285.334 239.107 287.68 239.557 289.943C240.008 292.206 241.119 294.285 242.75 295.916C244.382 297.548 246.461 298.659 248.724 299.109C250.987 299.559 253.333 299.328 255.465 298.445C257.596 297.562 259.419 296.067 260.7 294.148C261.982 292.23 262.667 289.974 262.667 287.667C262.667 284.572 261.437 281.605 259.25 279.417C257.062 277.229 254.094 276 251 276V276ZM251 292.667C250.011 292.667 249.044 292.373 248.222 291.824C247.4 291.275 246.759 290.494 246.381 289.58C246.002 288.666 245.903 287.661 246.096 286.691C246.289 285.721 246.765 284.83 247.464 284.131C248.164 283.432 249.055 282.956 250.025 282.763C250.994 282.57 252 282.669 252.913 283.047C253.827 283.426 254.608 284.067 255.157 284.889C255.707 285.711 256 286.678 256 287.667C256 288.993 255.473 290.265 254.536 291.202C253.598 292.14 252.326 292.667 251 292.667Z" fill="#64E444"/>
<path d="M222.5 52L61.5 107L222.5 280.5L61.5 509" stroke="white"/>
<path d="M61.5 531.5L242.5 597" stroke="white"/>
<rect x="10" y="609" width="20" height="20" fill="#64E444"/>
<rect x="10" y="648" width="20" height="20" fill="#F61212"/>
<path d="M38.2642 628V613.455H41.3395V625.464H47.5753V628H38.2642ZM49.555 628V617.091H52.5806V628H49.555ZM51.0749 615.685C50.6251 615.685 50.2392 615.536 49.9173 615.237C49.6 614.934 49.4414 614.572 49.4414 614.151C49.4414 613.734 49.6 613.376 49.9173 613.078C50.2392 612.775 50.6251 612.624 51.0749 612.624C51.5247 612.624 51.9083 612.775 52.2255 613.078C52.5475 613.376 52.7085 613.734 52.7085 614.151C52.7085 614.572 52.5475 614.934 52.2255 615.237C51.9083 615.536 51.5247 615.685 51.0749 615.685ZM55.0611 628V613.455H58.0866V618.923H58.179C58.3116 618.63 58.5033 618.331 58.7543 618.028C59.0099 617.721 59.3414 617.465 59.7486 617.261C60.1605 617.053 60.6719 616.949 61.2827 616.949C62.0781 616.949 62.812 617.157 63.4844 617.574C64.1567 617.986 64.6941 618.608 65.0966 619.442C65.4991 620.27 65.7003 621.31 65.7003 622.56C65.7003 623.777 65.5038 624.804 65.1108 625.642C64.7225 626.475 64.1922 627.107 63.5199 627.538C62.8523 627.964 62.1042 628.178 61.2756 628.178C60.6884 628.178 60.1889 628.08 59.777 627.886C59.3698 627.692 59.036 627.448 58.7756 627.155C58.5152 626.857 58.3163 626.556 58.179 626.253H58.044V628H55.0611ZM58.0227 622.545C58.0227 623.194 58.1127 623.76 58.2926 624.243C58.4725 624.726 58.733 625.102 59.0739 625.372C59.4148 625.637 59.8291 625.77 60.3168 625.77C60.8092 625.77 61.2259 625.635 61.5668 625.365C61.9077 625.09 62.1657 624.712 62.3409 624.229C62.5208 623.741 62.6108 623.18 62.6108 622.545C62.6108 621.916 62.5232 621.362 62.348 620.884C62.1728 620.405 61.9148 620.031 61.5739 619.761C61.233 619.491 60.8139 619.357 60.3168 619.357C59.8243 619.357 59.4077 619.487 59.0668 619.747C58.7306 620.008 58.4725 620.377 58.2926 620.855C58.1127 621.333 58.0227 621.897 58.0227 622.545ZM72.6907 628.213C71.5685 628.213 70.6026 627.986 69.793 627.531C68.988 627.072 68.3678 626.423 67.9322 625.585C67.4966 624.742 67.2788 623.746 67.2788 622.595C67.2788 621.473 67.4966 620.488 67.9322 619.641C68.3678 618.793 68.9809 618.133 69.7717 617.659C70.5671 617.186 71.4999 616.949 72.57 616.949C73.2897 616.949 73.9596 617.065 74.5799 617.297C75.2049 617.524 75.7494 617.867 76.2134 618.327C76.6822 618.786 77.0468 619.364 77.3072 620.06C77.5676 620.751 77.6978 621.561 77.6978 622.489V623.32H68.4862V621.445H74.8498C74.8498 621.009 74.7551 620.623 74.5657 620.287C74.3763 619.951 74.1135 619.688 73.7773 619.499C73.4459 619.304 73.06 619.207 72.6197 619.207C72.1604 619.207 71.7532 619.314 71.3981 619.527C71.0477 619.735 70.7731 620.017 70.5742 620.372C70.3754 620.723 70.2736 621.113 70.2688 621.544V623.327C70.2688 623.866 70.3683 624.333 70.5671 624.726C70.7707 625.119 71.0572 625.422 71.4265 625.635C71.7958 625.848 72.2338 625.955 72.7404 625.955C73.0766 625.955 73.3844 625.907 73.6637 625.812C73.9431 625.718 74.1822 625.576 74.381 625.386C74.5799 625.197 74.7314 624.965 74.8356 624.69L77.6339 624.875C77.4918 625.547 77.2006 626.134 76.7603 626.636C76.3247 627.134 75.7612 627.522 75.07 627.801C74.3834 628.076 73.5903 628.213 72.6907 628.213ZM79.6722 628V617.091H82.6055V618.994H82.7191C82.918 618.317 83.2518 617.806 83.7205 617.46C84.1893 617.11 84.729 616.935 85.3398 616.935C85.4914 616.935 85.6547 616.944 85.8299 616.963C86.0051 616.982 86.159 617.008 86.2915 617.041V619.726C86.1495 619.683 85.953 619.645 85.7021 619.612C85.4511 619.579 85.2215 619.562 85.0131 619.562C84.5681 619.562 84.1703 619.66 83.82 619.854C83.4743 620.043 83.1997 620.308 82.9961 620.649C82.7972 620.99 82.6978 621.383 82.6978 621.828V628H79.6722ZM90.6541 628.206C89.9581 628.206 89.3378 628.085 88.7933 627.844C88.2488 627.598 87.8179 627.235 87.5007 626.757C87.1882 626.274 87.032 625.673 87.032 624.953C87.032 624.347 87.1432 623.838 87.3658 623.426C87.5883 623.014 87.8913 622.683 88.2749 622.432C88.6584 622.181 89.094 621.991 89.5817 621.864C90.0741 621.736 90.5902 621.646 91.13 621.594C91.7644 621.527 92.2758 621.466 92.6641 621.409C93.0523 621.348 93.334 621.258 93.5092 621.139C93.6844 621.021 93.772 620.846 93.772 620.614V620.571C93.772 620.121 93.63 619.773 93.3459 619.527C93.0665 619.281 92.6688 619.158 92.1527 619.158C91.6082 619.158 91.175 619.278 90.853 619.52C90.531 619.757 90.3179 620.055 90.2138 620.415L87.4155 620.188C87.5575 619.525 87.8369 618.952 88.2536 618.469C88.6702 617.981 89.2076 617.607 89.8658 617.347C90.5286 617.081 91.2957 616.949 92.1669 616.949C92.773 616.949 93.353 617.02 93.907 617.162C94.4657 617.304 94.9605 617.524 95.3913 617.822C95.8269 618.121 96.1702 618.504 96.4212 618.973C96.6721 619.437 96.7976 619.993 96.7976 620.642V628H93.9283V626.487H93.843C93.6679 626.828 93.4335 627.129 93.1399 627.389C92.8464 627.645 92.4936 627.846 92.0817 627.993C91.6697 628.135 91.1939 628.206 90.6541 628.206ZM91.5206 626.118C91.9657 626.118 92.3587 626.03 92.6996 625.855C93.0405 625.675 93.308 625.434 93.5021 625.131C93.6963 624.828 93.7933 624.484 93.7933 624.101V622.943C93.6986 623.005 93.5684 623.062 93.4027 623.114C93.2417 623.161 93.0594 623.206 92.8558 623.249C92.6522 623.286 92.4486 623.322 92.245 623.355C92.0414 623.384 91.8568 623.41 91.6911 623.433C91.3359 623.485 91.0258 623.568 90.7607 623.682C90.4955 623.795 90.2895 623.949 90.1428 624.143C89.996 624.333 89.9226 624.57 89.9226 624.854C89.9226 625.266 90.0717 625.58 90.37 625.798C90.6731 626.011 91.0566 626.118 91.5206 626.118ZM103.165 628.178C102.336 628.178 101.586 627.964 100.913 627.538C100.246 627.107 99.7154 626.475 99.3224 625.642C98.9342 624.804 98.7401 623.777 98.7401 622.56C98.7401 621.31 98.9413 620.27 99.3438 619.442C99.7462 618.608 100.281 617.986 100.949 617.574C101.621 617.157 102.357 616.949 103.158 616.949C103.768 616.949 104.277 617.053 104.685 617.261C105.097 617.465 105.428 617.721 105.679 618.028C105.935 618.331 106.129 618.63 106.261 618.923H106.354V613.455H109.372V628H106.389V626.253H106.261C106.119 626.556 105.918 626.857 105.658 627.155C105.402 627.448 105.068 627.692 104.656 627.886C104.249 628.08 103.752 628.178 103.165 628.178ZM104.124 625.77C104.611 625.77 105.023 625.637 105.359 625.372C105.7 625.102 105.961 624.726 106.141 624.243C106.325 623.76 106.418 623.194 106.418 622.545C106.418 621.897 106.328 621.333 106.148 620.855C105.968 620.377 105.707 620.008 105.366 619.747C105.026 619.487 104.611 619.357 104.124 619.357C103.626 619.357 103.207 619.491 102.866 619.761C102.526 620.031 102.268 620.405 102.092 620.884C101.917 621.362 101.83 621.916 101.83 622.545C101.83 623.18 101.917 623.741 102.092 624.229C102.272 624.712 102.53 625.09 102.866 625.365C103.207 625.635 103.626 625.77 104.124 625.77ZM116.789 628.213C115.685 628.213 114.731 627.979 113.926 627.51C113.126 627.036 112.508 626.378 112.073 625.536C111.637 624.688 111.419 623.705 111.419 622.588C111.419 621.461 111.637 620.476 112.073 619.634C112.508 618.786 113.126 618.128 113.926 617.659C114.731 617.186 115.685 616.949 116.789 616.949C117.892 616.949 118.844 617.186 119.644 617.659C120.449 618.128 121.069 618.786 121.505 619.634C121.94 620.476 122.158 621.461 122.158 622.588C122.158 623.705 121.94 624.688 121.505 625.536C121.069 626.378 120.449 627.036 119.644 627.51C118.844 627.979 117.892 628.213 116.789 628.213ZM116.803 625.869C117.305 625.869 117.724 625.727 118.06 625.443C118.396 625.154 118.65 624.761 118.82 624.264C118.995 623.767 119.083 623.201 119.083 622.567C119.083 621.932 118.995 621.366 118.82 620.869C118.65 620.372 118.396 619.979 118.06 619.69C117.724 619.402 117.305 619.257 116.803 619.257C116.296 619.257 115.87 619.402 115.525 619.69C115.184 619.979 114.926 620.372 114.75 620.869C114.58 621.366 114.495 621.932 114.495 622.567C114.495 623.201 114.58 623.767 114.75 624.264C114.926 624.761 115.184 625.154 115.525 625.443C115.87 625.727 116.296 625.869 116.803 625.869Z" fill="white"/>
<path d="M51.6307 659.727C51.6307 661.313 51.33 662.663 50.7287 663.776C50.1321 664.888 49.3177 665.738 48.2855 666.325C47.258 666.908 46.1027 667.199 44.8196 667.199C43.527 667.199 42.367 666.905 41.3395 666.318C40.312 665.731 39.5 664.881 38.9034 663.768C38.3068 662.656 38.0085 661.309 38.0085 659.727C38.0085 658.141 38.3068 656.792 38.9034 655.679C39.5 654.566 40.312 653.719 41.3395 653.136C42.367 652.549 43.527 652.256 44.8196 652.256C46.1027 652.256 47.258 652.549 48.2855 653.136C49.3177 653.719 50.1321 654.566 50.7287 655.679C51.33 656.792 51.6307 658.141 51.6307 659.727ZM48.5128 659.727C48.5128 658.7 48.3589 657.833 48.0511 657.128C47.7481 656.422 47.3196 655.887 46.7656 655.523C46.2116 655.158 45.563 654.976 44.8196 654.976C44.0762 654.976 43.4276 655.158 42.8736 655.523C42.3196 655.887 41.8887 656.422 41.581 657.128C41.2779 657.833 41.1264 658.7 41.1264 659.727C41.1264 660.755 41.2779 661.621 41.581 662.327C41.8887 663.032 42.3196 663.567 42.8736 663.932C43.4276 664.296 44.0762 664.479 44.8196 664.479C45.563 664.479 46.2116 664.296 46.7656 663.932C47.3196 663.567 47.7481 663.032 48.0511 662.327C48.3589 661.621 48.5128 660.755 48.5128 659.727ZM58.7809 667.213C57.6635 667.213 56.7023 666.976 55.8974 666.503C55.0972 666.025 54.4817 665.362 54.0508 664.514C53.6246 663.667 53.4116 662.691 53.4116 661.588C53.4116 660.471 53.627 659.491 54.0579 658.648C54.4935 657.8 55.1114 657.14 55.9116 656.666C56.7118 656.188 57.6635 655.949 58.7667 655.949C59.7184 655.949 60.5517 656.122 61.2667 656.467C61.9817 656.813 62.5475 657.298 62.9641 657.923C63.3808 658.548 63.6104 659.282 63.6531 660.125H60.7979C60.7174 659.58 60.5044 659.143 60.1587 658.811C59.8178 658.475 59.3704 658.307 58.8164 658.307C58.3477 658.307 57.9381 658.435 57.5877 658.69C57.2421 658.941 56.9722 659.308 56.7781 659.791C56.5839 660.274 56.4869 660.859 56.4869 661.545C56.4869 662.241 56.5816 662.833 56.771 663.321C56.9651 663.809 57.2373 664.18 57.5877 664.436C57.9381 664.692 58.3477 664.82 58.8164 664.82C59.1621 664.82 59.4722 664.749 59.7468 664.607C60.0262 664.464 60.2558 664.259 60.4357 663.989C60.6204 663.714 60.7411 663.385 60.7979 663.001H63.6531C63.6057 663.835 63.3784 664.569 62.9712 665.203C62.5688 665.833 62.0124 666.325 61.3022 666.68C60.592 667.036 59.7515 667.213 58.7809 667.213ZM72.5859 662.355V656.091H75.6115V667H72.7067V665.018H72.593C72.3468 665.658 71.9373 666.171 71.3643 666.56C70.7962 666.948 70.1025 667.142 69.2834 667.142C68.5542 667.142 67.9126 666.976 67.3587 666.645C66.8047 666.313 66.3714 665.842 66.0589 665.232C65.7512 664.621 65.5949 663.889 65.5902 663.037V656.091H68.6158V662.497C68.6205 663.141 68.7933 663.65 69.1342 664.024C69.4751 664.398 69.9321 664.585 70.505 664.585C70.8696 664.585 71.2105 664.502 71.5277 664.337C71.8449 664.166 72.1006 663.915 72.2947 663.584C72.4936 663.252 72.5907 662.843 72.5859 662.355ZM78.0316 671.091V656.091H81.0146V657.923H81.1495C81.2821 657.63 81.4738 657.331 81.7248 657.028C81.9805 656.721 82.3119 656.465 82.7191 656.261C83.131 656.053 83.6424 655.949 84.2532 655.949C85.0487 655.949 85.7826 656.157 86.4549 656.574C87.1272 656.986 87.6647 657.608 88.0671 658.442C88.4696 659.27 88.6708 660.31 88.6708 661.56C88.6708 662.777 88.4743 663.804 88.0813 664.642C87.6931 665.475 87.1628 666.107 86.4904 666.538C85.8228 666.964 85.0747 667.178 84.2461 667.178C83.659 667.178 83.1594 667.08 82.7475 666.886C82.3403 666.692 82.0065 666.448 81.7461 666.155C81.4857 665.857 81.2868 665.556 81.1495 665.253H81.0572V671.091H78.0316ZM80.9933 661.545C80.9933 662.194 81.0832 662.76 81.2631 663.243C81.4431 663.726 81.7035 664.102 82.0444 664.372C82.3853 664.637 82.7996 664.77 83.2873 664.77C83.7797 664.77 84.1964 664.635 84.5373 664.365C84.8782 664.09 85.1362 663.712 85.3114 663.229C85.4914 662.741 85.5813 662.18 85.5813 661.545C85.5813 660.916 85.4937 660.362 85.3185 659.884C85.1433 659.405 84.8853 659.031 84.5444 658.761C84.2035 658.491 83.7844 658.357 83.2873 658.357C82.7949 658.357 82.3782 658.487 82.0373 658.747C81.7011 659.008 81.4431 659.377 81.2631 659.855C81.0832 660.333 80.9933 660.897 80.9933 661.545ZM93.7987 667.206C93.1026 667.206 92.4824 667.085 91.9379 666.844C91.3933 666.598 90.9625 666.235 90.6452 665.757C90.3327 665.274 90.1765 664.673 90.1765 663.953C90.1765 663.347 90.2878 662.838 90.5103 662.426C90.7328 662.014 91.0359 661.683 91.4194 661.432C91.8029 661.181 92.2385 660.991 92.7262 660.864C93.2186 660.736 93.7347 660.646 94.2745 660.594C94.909 660.527 95.4203 660.466 95.8086 660.409C96.1969 660.348 96.4786 660.258 96.6538 660.139C96.829 660.021 96.9165 659.846 96.9165 659.614V659.571C96.9165 659.121 96.7745 658.773 96.4904 658.527C96.2111 658.281 95.8133 658.158 95.2972 658.158C94.7527 658.158 94.3195 658.278 93.9975 658.52C93.6755 658.757 93.4625 659.055 93.3583 659.415L90.56 659.188C90.7021 658.525 90.9814 657.952 91.3981 657.469C91.8147 656.981 92.3522 656.607 93.0103 656.347C93.6732 656.081 94.4402 655.949 95.3114 655.949C95.9175 655.949 96.4975 656.02 97.0515 656.162C97.6102 656.304 98.105 656.524 98.5359 656.822C98.9715 657.121 99.3147 657.504 99.5657 657.973C99.8166 658.437 99.9421 658.993 99.9421 659.642V667H97.0728V665.487H96.9876C96.8124 665.828 96.578 666.129 96.2844 666.389C95.9909 666.645 95.6381 666.846 95.2262 666.993C94.8143 667.135 94.3384 667.206 93.7987 667.206ZM94.6651 665.118C95.1102 665.118 95.5032 665.03 95.8441 664.855C96.185 664.675 96.4525 664.434 96.6467 664.131C96.8408 663.828 96.9379 663.484 96.9379 663.101V661.943C96.8432 662.005 96.713 662.062 96.5472 662.114C96.3862 662.161 96.204 662.206 96.0004 662.249C95.7968 662.286 95.5932 662.322 95.3896 662.355C95.186 662.384 95.0013 662.41 94.8356 662.433C94.4805 662.485 94.1703 662.568 93.9052 662.682C93.64 662.795 93.4341 662.949 93.2873 663.143C93.1405 663.333 93.0671 663.57 93.0671 663.854C93.0671 664.266 93.2163 664.58 93.5146 664.798C93.8176 665.011 94.2011 665.118 94.6651 665.118ZM106.309 667.178C105.481 667.178 104.73 666.964 104.058 666.538C103.39 666.107 102.86 665.475 102.467 664.642C102.079 663.804 101.885 662.777 101.885 661.56C101.885 660.31 102.086 659.27 102.488 658.442C102.891 657.608 103.426 656.986 104.093 656.574C104.766 656.157 105.502 655.949 106.302 655.949C106.913 655.949 107.422 656.053 107.829 656.261C108.241 656.465 108.573 656.721 108.824 657.028C109.079 657.331 109.273 657.63 109.406 657.923H109.498V652.455H112.517V667H109.534V665.253H109.406C109.264 665.556 109.063 665.857 108.802 666.155C108.547 666.448 108.213 666.692 107.801 666.886C107.394 667.08 106.896 667.178 106.309 667.178ZM107.268 664.77C107.756 664.77 108.168 664.637 108.504 664.372C108.845 664.102 109.105 663.726 109.285 663.243C109.47 662.76 109.562 662.194 109.562 661.545C109.562 660.897 109.472 660.333 109.292 659.855C109.112 659.377 108.852 659.008 108.511 658.747C108.17 658.487 107.756 658.357 107.268 658.357C106.771 658.357 106.352 658.491 106.011 658.761C105.67 659.031 105.412 659.405 105.237 659.884C105.062 660.362 104.974 660.916 104.974 661.545C104.974 662.18 105.062 662.741 105.237 663.229C105.417 663.712 105.675 664.09 106.011 664.365C106.352 664.635 106.771 664.77 107.268 664.77ZM119.933 667.213C118.83 667.213 117.876 666.979 117.071 666.51C116.271 666.036 115.653 665.378 115.217 664.536C114.782 663.688 114.564 662.705 114.564 661.588C114.564 660.461 114.782 659.476 115.217 658.634C115.653 657.786 116.271 657.128 117.071 656.659C117.876 656.186 118.83 655.949 119.933 655.949C121.036 655.949 121.988 656.186 122.788 656.659C123.593 657.128 124.214 657.786 124.649 658.634C125.085 659.476 125.303 660.461 125.303 661.588C125.303 662.705 125.085 663.688 124.649 664.536C124.214 665.378 123.593 666.036 122.788 666.51C121.988 666.979 121.036 667.213 119.933 667.213ZM119.947 664.869C120.449 664.869 120.868 664.727 121.205 664.443C121.541 664.154 121.794 663.761 121.964 663.264C122.14 662.767 122.227 662.201 122.227 661.567C122.227 660.932 122.14 660.366 121.964 659.869C121.794 659.372 121.541 658.979 121.205 658.69C120.868 658.402 120.449 658.257 119.947 658.257C119.441 658.257 119.015 658.402 118.669 658.69C118.328 658.979 118.07 659.372 117.895 659.869C117.724 660.366 117.639 660.932 117.639 661.567C117.639 662.201 117.724 662.767 117.895 663.264C118.07 663.761 118.328 664.154 118.669 664.443C119.015 664.727 119.441 664.869 119.947 664.869Z" fill="white"/>
</svg>
